<svg width="714" height="315" viewBox="0 0 714 315" fill="none" xmlns="http://www.w3.org/2000/svg">
<rect width="2.99578" height="2.99578" rx="0.998595" transform="matrix(0.895337 0.445389 -0.446684 0.894692 283.151 136.69)" fill="url(#paint0_radial_3029_20226)"/>
<rect width="2.99578" height="2.99578" rx="0.998595" transform="matrix(0.895337 0.445389 -0.446684 0.894692 287.935 143.298)" fill="url(#paint1_radial_3029_20226)"/>
<rect width="2.99578" height="2.99578" rx="0.998595" transform="matrix(0.895337 0.445389 -0.446684 0.894692 278.383 129.127)" fill="url(#paint2_radial_3029_20226)"/>
<rect width="2.99578" height="2.99578" rx="0.998595" transform="matrix(0.895337 0.445389 -0.446684 0.894692 273.458 121.673)" fill="url(#paint3_radial_3029_20226)"/>
<rect width="2.99578" height="2.99578" rx="0.998595" transform="matrix(0.895337 0.445389 -0.446684 0.894692 268.327 114.365)" fill="url(#paint4_radial_3029_20226)"/>
<rect width="2.99578" height="2.99578" rx="0.998595" transform="matrix(0.895337 0.445389 -0.446684 0.894692 262.923 107.268)" fill="url(#paint5_radial_3029_20226)"/>
<rect width="2.99578" height="2.99578" rx="0.998595" transform="matrix(0.895337 0.445389 -0.446684 0.894692 257.147 100.487)" fill="url(#paint6_radial_3029_20226)"/>
<rect width="2.99578" height="2.99578" rx="0.998595" transform="matrix(0.895337 0.445389 -0.446684 0.894692 250.854 94.2256)" fill="url(#paint7_radial_3029_20226)"/>
<rect width="2.99578" height="2.99578" rx="0.998595" transform="matrix(0.895337 0.445389 -0.446684 0.894692 243.83 88.9106)" fill="url(#paint8_radial_3029_20226)"/>
<rect width="2.99578" height="2.99578" rx="0.998595" transform="matrix(0.895337 0.445389 -0.446684 0.894692 235.68 85.4727)" fill="url(#paint9_radial_3029_20226)"/>
<rect width="2.99578" height="2.99578" rx="0.998595" transform="matrix(0.895337 0.445389 -0.446684 0.894692 226.766 85.9927)" fill="url(#paint10_radial_3029_20226)"/>
<rect width="2.99578" height="2.99578" rx="0.998595" transform="matrix(0.895337 0.445389 -0.446684 0.894692 219.444 90.7446)" fill="url(#paint11_radial_3029_20226)"/>
<rect width="2.99578" height="2.99578" rx="0.998595" transform="matrix(0.895337 0.445389 -0.446684 0.894692 213.984 97.5337)" fill="url(#paint12_radial_3029_20226)"/>
<rect width="2.99578" height="2.99578" rx="0.998595" transform="matrix(0.895337 0.445389 -0.446684 0.894692 210.045 103.355)" fill="url(#paint13_radial_3029_20226)"/>
<rect width="2.99578" height="2.99578" rx="0.998595" transform="matrix(0.895337 0.445389 -0.446684 0.894692 206.23 109.855)" fill="url(#paint14_radial_3029_20226)"/>
<rect width="2.99578" height="2.99578" rx="0.998595" transform="matrix(0.895337 0.445389 -0.446684 0.894692 200.316 116.516)" fill="url(#paint15_radial_3029_20226)"/>
<rect width="2.99578" height="2.99578" rx="0.998595" transform="matrix(0.895337 0.445389 -0.446684 0.894692 193.287 122.02)" fill="url(#paint16_radial_3029_20226)"/>
<rect width="2.99578" height="2.99578" rx="0.998595" transform="matrix(0.895337 0.445389 -0.446684 0.894692 185.259 125.965)" fill="url(#paint17_radial_3029_20226)"/>
<rect width="2.99578" height="2.99578" rx="0.998595" transform="matrix(0.895337 0.445389 -0.446684 0.894692 176.58 128.13)" fill="url(#paint18_radial_3029_20226)"/>
<rect width="2.99578" height="2.99578" rx="0.998595" transform="matrix(0.895337 0.445389 -0.446684 0.894692 167.653 128.6)" fill="url(#paint19_radial_3029_20226)"/>
<rect width="2.99578" height="2.99578" rx="0.998595" transform="matrix(0.895337 0.445389 -0.446684 0.894692 158.769 127.657)" fill="url(#paint20_radial_3029_20226)"/>
<rect width="2.99578" height="2.99578" rx="0.998595" transform="matrix(0.895337 0.445389 -0.446684 0.894692 150.071 125.613)" fill="url(#paint21_radial_3029_20226)"/>
<rect width="2.99578" height="2.99578" rx="0.998595" transform="matrix(0.895337 0.445389 -0.446684 0.894692 141.614 122.725)" fill="url(#paint22_radial_3029_20226)"/>
<rect width="2.99578" height="2.99578" rx="0.998595" transform="matrix(0.895337 0.445389 -0.446684 0.894692 133.406 119.186)" fill="url(#paint23_radial_3029_20226)"/>
<rect width="2.99578" height="2.99578" rx="0.998595" transform="matrix(0.895337 0.445389 -0.446684 0.894692 125.434 115.138)" fill="url(#paint24_radial_3029_20226)"/>
<rect width="2.99578" height="2.99578" rx="0.998595" transform="matrix(0.895337 0.445389 -0.446684 0.894692 117.68 110.682)" fill="url(#paint25_radial_3029_20226)"/>
<rect width="2.99578" height="2.99578" rx="0.998595" transform="matrix(0.895337 0.445389 -0.446684 0.894692 110.124 105.896)" fill="url(#paint26_radial_3029_20226)"/>
<rect width="2.99578" height="2.99578" rx="0.998595" transform="matrix(0.895337 0.445389 -0.446684 0.894692 102.748 100.836)" fill="url(#paint27_radial_3029_20226)"/>
<rect width="2.99578" height="2.99578" rx="0.998595" transform="matrix(0.895337 0.445389 -0.446684 0.894692 95.5344 95.5449)" fill="url(#paint28_radial_3029_20226)"/>
<rect width="2.99578" height="2.99578" rx="0.998595" transform="matrix(0.895337 0.445389 -0.446684 0.894692 88.4705 90.0547)" fill="url(#paint29_radial_3029_20226)"/>
<rect width="2.99578" height="2.99578" rx="0.998595" transform="matrix(0.895337 0.445389 -0.446684 0.894692 81.5417 84.395)" fill="url(#paint30_radial_3029_20226)"/>
<rect width="2.99578" height="2.99578" rx="0.998595" transform="matrix(0.895337 0.445389 -0.446684 0.894692 74.7388 78.5845)" fill="url(#paint31_radial_3029_20226)"/>
<rect width="2.99578" height="2.99578" rx="0.998595" transform="matrix(0.895337 0.445389 -0.446684 0.894692 68.0461 72.6367)" fill="url(#paint32_radial_3029_20226)"/>
<rect width="2.99578" height="2.99578" rx="0.998595" transform="matrix(0.895337 0.445389 -0.446684 0.894692 61.384 66.4976)" fill="url(#paint33_radial_3029_20226)"/>
<rect width="2.99578" height="2.99578" rx="0.998595" transform="matrix(0.895337 0.445389 -0.446684 0.894692 55.103 60.5171)" fill="url(#paint34_radial_3029_20226)"/>
<defs>
<radialGradient id="paint0_radial_3029_20226" cx="0" cy="0" r="1" gradientUnits="userSpaceOnUse" gradientTransform="translate(1.49789 1.49789) rotate(85.3036) scale(2.87102)">
<stop stop-color="white"/>
<stop offset="1" stop-color="#FAFAFA"/>
</radialGradient>
<radialGradient id="paint1_radial_3029_20226" cx="0" cy="0" r="1" gradientUnits="userSpaceOnUse" gradientTransform="translate(1.49789 1.49789) rotate(85.3036) scale(2.87102)">
<stop stop-color="white"/>
<stop offset="1" stop-color="#FAFAFA"/>
</radialGradient>
<radialGradient id="paint2_radial_3029_20226" cx="0" cy="0" r="1" gradientUnits="userSpaceOnUse" gradientTransform="translate(1.49789 1.49789) rotate(85.3036) scale(2.87102)">
<stop stop-color="white"/>
<stop offset="1" stop-color="#FAFAFA"/>
</radialGradient>
<radialGradient id="paint3_radial_3029_20226" cx="0" cy="0" r="1" gradientUnits="userSpaceOnUse" gradientTransform="translate(1.49789 1.49789) rotate(85.3036) scale(2.87102)">
<stop stop-color="white"/>
<stop offset="1" stop-color="#FAFAFA"/>
</radialGradient>
<radialGradient id="paint4_radial_3029_20226" cx="0" cy="0" r="1" gradientUnits="userSpaceOnUse" gradientTransform="translate(1.49789 1.49789) rotate(85.3036) scale(2.87102)">
<stop stop-color="white"/>
<stop offset="1" stop-color="#FAFAFA"/>
</radialGradient>
<radialGradient id="paint5_radial_3029_20226" cx="0" cy="0" r="1" gradientUnits="userSpaceOnUse" gradientTransform="translate(1.49789 1.49789) rotate(85.3036) scale(2.87102)">
<stop stop-color="white"/>
<stop offset="1" stop-color="#FAFAFA"/>
</radialGradient>
<radialGradient id="paint6_radial_3029_20226" cx="0" cy="0" r="1" gradientUnits="userSpaceOnUse" gradientTransform="translate(1.49789 1.49789) rotate(85.3036) scale(2.87102)">
<stop stop-color="white"/>
<stop offset="1" stop-color="#FAFAFA"/>
</radialGradient>
<radialGradient id="paint7_radial_3029_20226" cx="0" cy="0" r="1" gradientUnits="userSpaceOnUse" gradientTransform="translate(1.49789 1.49789) rotate(85.3036) scale(2.87102)">
<stop stop-color="white"/>
<stop offset="1" stop-color="#FAFAFA"/>
</radialGradient>
<radialGradient id="paint8_radial_3029_20226" cx="0" cy="0" r="1" gradientUnits="userSpaceOnUse" gradientTransform="translate(1.49789 1.49789) rotate(85.3036) scale(2.87102)">
<stop stop-color="white"/>
<stop offset="1" stop-color="#FAFAFA"/>
</radialGradient>
<radialGradient id="paint9_radial_3029_20226" cx="0" cy="0" r="1" gradientUnits="userSpaceOnUse" gradientTransform="translate(1.49789 1.49789) rotate(85.3036) scale(2.87102)">
<stop stop-color="white"/>
<stop offset="1" stop-color="#FAFAFA"/>
</radialGradient>
<radialGradient id="paint10_radial_3029_20226" cx="0" cy="0" r="1" gradientUnits="userSpaceOnUse" gradientTransform="translate(1.49789 1.49789) rotate(85.3036) scale(2.87102)">
<stop stop-color="white"/>
<stop offset="1" stop-color="#FAFAFA"/>
</radialGradient>
<radialGradient id="paint11_radial_3029_20226" cx="0" cy="0" r="1" gradientUnits="userSpaceOnUse" gradientTransform="translate(1.49789 1.49789) rotate(85.3036) scale(2.87102)">
<stop stop-color="white"/>
<stop offset="1" stop-color="#FAFAFA"/>
</radialGradient>
<radialGradient id="paint12_radial_3029_20226" cx="0" cy="0" r="1" gradientUnits="userSpaceOnUse" gradientTransform="translate(1.49789 1.49789) rotate(85.3036) scale(2.87102)">
<stop stop-color="white"/>
<stop offset="1" stop-color="#FAFAFA"/>
</radialGradient>
<radialGradient id="paint13_radial_3029_20226" cx="0" cy="0" r="1" gradientUnits="userSpaceOnUse" gradientTransform="translate(1.49789 1.49789) rotate(85.3036) scale(2.87102)">
<stop stop-color="white"/>
<stop offset="1" stop-color="#FAFAFA"/>
</radialGradient>
<radialGradient id="paint14_radial_3029_20226" cx="0" cy="0" r="1" gradientUnits="userSpaceOnUse" gradientTransform="translate(1.49789 1.49789) rotate(85.3036) scale(2.87102)">
<stop stop-color="white"/>
<stop offset="1" stop-color="#FAFAFA"/>
</radialGradient>
<radialGradient id="paint15_radial_3029_20226" cx="0" cy="0" r="1" gradientUnits="userSpaceOnUse" gradientTransform="translate(1.49789 1.49789) rotate(85.3036) scale(2.87102)">
<stop stop-color="white"/>
<stop offset="1" stop-color="#FAFAFA"/>
</radialGradient>
<radialGradient id="paint16_radial_3029_20226" cx="0" cy="0" r="1" gradientUnits="userSpaceOnUse" gradientTransform="translate(1.49789 1.49789) rotate(85.3036) scale(2.87102)">
<stop stop-color="white"/>
<stop offset="1" stop-color="#FAFAFA"/>
</radialGradient>
<radialGradient id="paint17_radial_3029_20226" cx="0" cy="0" r="1" gradientUnits="userSpaceOnUse" gradientTransform="translate(1.49789 1.49789) rotate(85.3036) scale(2.87102)">
<stop stop-color="white"/>
<stop offset="1" stop-color="#FAFAFA"/>
</radialGradient>
<radialGradient id="paint18_radial_3029_20226" cx="0" cy="0" r="1" gradientUnits="userSpaceOnUse" gradientTransform="translate(1.49789 1.49789) rotate(85.3036) scale(2.87102)">
<stop stop-color="white"/>
<stop offset="1" stop-color="#FAFAFA"/>
</radialGradient>
<radialGradient id="paint19_radial_3029_20226" cx="0" cy="0" r="1" gradientUnits="userSpaceOnUse" gradientTransform="translate(1.49789 1.49789) rotate(85.3036) scale(2.87102)">
<stop stop-color="white"/>
<stop offset="1" stop-color="#FAFAFA"/>
</radialGradient>
<radialGradient id="paint20_radial_3029_20226" cx="0" cy="0" r="1" gradientUnits="userSpaceOnUse" gradientTransform="translate(1.49789 1.49789) rotate(85.3036) scale(2.87102)">
<stop stop-color="white"/>
<stop offset="1" stop-color="#FAFAFA"/>
</radialGradient>
<radialGradient id="paint21_radial_3029_20226" cx="0" cy="0" r="1" gradientUnits="userSpaceOnUse" gradientTransform="translate(1.49789 1.49789) rotate(85.3036) scale(2.87102)">
<stop stop-color="white"/>
<stop offset="1" stop-color="#FAFAFA"/>
</radialGradient>
<radialGradient id="paint22_radial_3029_20226" cx="0" cy="0" r="1" gradientUnits="userSpaceOnUse" gradientTransform="translate(1.49789 1.49789) rotate(85.3036) scale(2.87102)">
<stop stop-color="white"/>
<stop offset="1" stop-color="#FAFAFA"/>
</radialGradient>
<radialGradient id="paint23_radial_3029_20226" cx="0" cy="0" r="1" gradientUnits="userSpaceOnUse" gradientTransform="translate(1.49789 1.49789) rotate(85.3036) scale(2.87102)">
<stop stop-color="white"/>
<stop offset="1" stop-color="#FAFAFA"/>
</radialGradient>
<radialGradient id="paint24_radial_3029_20226" cx="0" cy="0" r="1" gradientUnits="userSpaceOnUse" gradientTransform="translate(1.49789 1.49789) rotate(85.3036) scale(2.87102)">
<stop stop-color="white"/>
<stop offset="1" stop-color="#FAFAFA"/>
</radialGradient>
<radialGradient id="paint25_radial_3029_20226" cx="0" cy="0" r="1" gradientUnits="userSpaceOnUse" gradientTransform="translate(1.49789 1.49789) rotate(85.3036) scale(2.87102)">
<stop stop-color="white"/>
<stop offset="1" stop-color="#FAFAFA"/>
</radialGradient>
<radialGradient id="paint26_radial_3029_20226" cx="0" cy="0" r="1" gradientUnits="userSpaceOnUse" gradientTransform="translate(1.49789 1.49789) rotate(85.3036) scale(2.87102)">
<stop stop-color="white"/>
<stop offset="1" stop-color="#FAFAFA"/>
</radialGradient>
<radialGradient id="paint27_radial_3029_20226" cx="0" cy="0" r="1" gradientUnits="userSpaceOnUse" gradientTransform="translate(1.49789 1.49789) rotate(85.3036) scale(2.87102)">
<stop stop-color="white"/>
<stop offset="1" stop-color="#FAFAFA"/>
</radialGradient>
<radialGradient id="paint28_radial_3029_20226" cx="0" cy="0" r="1" gradientUnits="userSpaceOnUse" gradientTransform="translate(1.49789 1.49789) rotate(85.3036) scale(2.87102)">
<stop stop-color="white"/>
<stop offset="1" stop-color="#FAFAFA"/>
</radialGradient>
<radialGradient id="paint29_radial_3029_20226" cx="0" cy="0" r="1" gradientUnits="userSpaceOnUse" gradientTransform="translate(1.49789 1.49789) rotate(85.3036) scale(2.87102)">
<stop stop-color="white"/>
<stop offset="1" stop-color="#FAFAFA"/>
</radialGradient>
<radialGradient id="paint30_radial_3029_20226" cx="0" cy="0" r="1" gradientUnits="userSpaceOnUse" gradientTransform="translate(1.49789 1.49789) rotate(85.3036) scale(2.87102)">
<stop stop-color="white"/>
<stop offset="1" stop-color="#FAFAFA"/>
</radialGradient>
<radialGradient id="paint31_radial_3029_20226" cx="0" cy="0" r="1" gradientUnits="userSpaceOnUse" gradientTransform="translate(1.49789 1.49789) rotate(85.3036) scale(2.87102)">
<stop stop-color="white"/>
<stop offset="1" stop-color="#FAFAFA"/>
</radialGradient>
<radialGradient id="paint32_radial_3029_20226" cx="0" cy="0" r="1" gradientUnits="userSpaceOnUse" gradientTransform="translate(1.49789 1.49789) rotate(85.3036) scale(2.87102)">
<stop stop-color="white"/>
<stop offset="1" stop-color="#FAFAFA"/>
</radialGradient>
<radialGradient id="paint33_radial_3029_20226" cx="0" cy="0" r="1" gradientUnits="userSpaceOnUse" gradientTransform="translate(1.49789 1.49789) rotate(85.3036) scale(2.87102)">
<stop stop-color="white"/>
<stop offset="1" stop-color="#FAFAFA"/>
</radialGradient>
<radialGradient id="paint34_radial_3029_20226" cx="0" cy="0" r="1" gradientUnits="userSpaceOnUse" gradientTransform="translate(1.49789 1.49789) rotate(85.3036) scale(2.87102)">
<stop stop-color="white"/>
<stop offset="1" stop-color="#FAFAFA"/>
</radialGradient>
</defs>
</svg>
