<svg width="16" height="18" viewBox="0 0 16 18" fill="none" xmlns="http://www.w3.org/2000/svg">
<path fill-rule="evenodd" clip-rule="evenodd" d="M11.9208 0.691756L11.9217 1.36642C14.3702 1.56072 15.9877 3.25007 15.9903 5.84078L16 13.424C16.0035 16.2486 14.2509 17.9865 11.4416 17.991L4.57945 18C1.78773 18.0036 0.0131703 16.2243 0.00965978 13.3916L5.91089e-06 5.89745C-0.00350459 3.28965 1.55691 1.6048 4.00549 1.37721L4.00461 0.70255C4.00373 0.306748 4.29335 0.00899753 4.6795 0.00899753C5.06566 0.00809798 5.35527 0.304949 5.35615 0.700751L5.35703 1.33044L10.5701 1.32324L10.5692 0.693555C10.5684 0.297753 10.858 0.000901588 11.2441 2.03894e-06C11.6215 -0.000897511 11.9199 0.295954 11.9208 0.691756ZM1.35196 6.1756L14.6392 6.15761V5.84277C14.6015 3.90874 13.6431 2.89405 11.9229 2.74292L11.9238 3.43558C11.9238 3.82238 11.6263 4.12913 11.2489 4.12913C10.8628 4.13003 10.5723 3.82418 10.5723 3.43738L10.5714 2.70874L5.35831 2.71594L5.35919 3.44367C5.35919 3.83138 5.07045 4.13723 4.6843 4.13723C4.29814 4.13812 4.00765 3.83318 4.00765 3.44547L4.00677 2.75282C2.2954 2.92643 1.34845 3.94472 1.35108 5.89584L1.35196 6.1756ZM10.8799 10.2637V10.2736C10.8887 10.6874 11.2222 11.0013 11.6267 10.9923C12.0217 10.9824 12.3367 10.6397 12.328 10.2259C12.3095 9.8301 11.9927 9.50716 11.5987 9.50806C11.195 9.51705 10.879 9.84989 10.8799 10.2637ZM11.6054 14.3028C11.2017 14.2938 10.8761 13.9529 10.8752 13.5391C10.8664 13.1253 11.1902 12.7826 11.5939 12.7727H11.6027C12.0152 12.7727 12.3496 13.1136 12.3496 13.5364C12.3505 13.9592 12.017 14.3019 11.6054 14.3028ZM7.26466 10.2782C7.28222 10.692 7.61659 11.0149 8.0203 10.9969C8.41523 10.978 8.7303 10.6362 8.71274 10.2224C8.70309 9.81761 8.37837 9.50276 7.98344 9.50366C7.57973 9.52166 7.26378 9.86438 7.26466 10.2782ZM8.02319 14.2623C7.61948 14.2803 7.28598 13.9573 7.26755 13.5436C7.26755 13.1298 7.58262 12.7879 7.98633 12.769C8.38126 12.7681 8.70686 13.083 8.71564 13.4869C8.73407 13.9016 8.41812 14.2434 8.02319 14.2623ZM3.64893 10.3099C3.66648 10.7237 4.00086 11.0475 4.40456 11.0287C4.79949 11.0107 5.11456 10.6679 5.09613 10.2541C5.08735 9.84935 4.76263 9.5345 4.36682 9.5354C3.96312 9.55339 3.64805 9.89612 3.64893 10.3099ZM4.40749 14.2667C4.00378 14.2856 3.67029 13.9617 3.65186 13.548C3.65098 13.1342 3.96692 12.7914 4.37063 12.7734C4.76556 12.7725 5.09116 13.0874 5.09994 13.4922C5.11837 13.906 4.8033 14.2487 4.40749 14.2667Z" fill="#D2D2D2"/>
</svg>
