<svg width="89" height="63" viewBox="0 0 89 63" fill="none" xmlns="http://www.w3.org/2000/svg">
<path d="M84.0979 21.0136C86.1549 20.2528 87.2057 17.9684 86.4448 15.9113C85.684 13.8543 83.3996 12.8035 81.3425 13.5644C79.2855 14.3252 78.2347 16.6096 78.9956 18.6667C79.7564 20.7237 82.0408 21.7745 84.0979 21.0136Z" fill="#3897FF"/>
<path d="M8.26796 24.1588C9.42664 23.7302 10.0185 22.4435 9.58994 21.2848C9.16137 20.1261 7.87464 19.5342 6.71596 19.9628C5.55727 20.3914 4.96541 21.6781 5.39398 22.8368C5.82255 23.9955 7.10928 24.5873 8.26796 24.1588Z" fill="#00A98F"/>
<path d="M50.9933 24.4505L45.4156 20.3927L38.6179 21.5622L42.6758 15.9845L41.5063 9.1868L47.084 13.2443L53.8817 12.0752L49.8238 17.6528L50.9933 24.4505Z" fill="#FFCC00"/>
<path d="M46.9452 51.1055L40.0549 50.7928L35.0265 55.514L35.3394 48.6234L30.618 43.5952L37.5083 43.908L42.5367 39.1867L42.224 46.0769L46.9452 51.1055Z" fill="#8E4DD5"/>
</svg>
