<svg width="18" height="18" viewBox="0 0 18 18" fill="none" xmlns="http://www.w3.org/2000/svg">
<path d="M13.191 0C16.28 0 18 1.602 18 4.347V13.644C18 16.434 16.28 18 13.191 18H4.81C1.77 18 0 16.434 0 13.644V4.347C0 1.602 1.77 0 4.81 0H13.191ZM5.08 12.366C4.78 12.339 4.49 12.465 4.33 12.699C4.17 12.924 4.17 13.221 4.33 13.455C4.49 13.68 4.78 13.815 5.08 13.779H12.92C13.319 13.743 13.62 13.4361 13.62 13.077C13.62 12.708 13.319 12.402 12.92 12.366H5.08ZM12.92 8.2611H5.08C4.649 8.2611 4.3 8.577 4.3 8.964C4.3 9.351 4.649 9.666 5.08 9.666H12.92C13.35 9.666 13.7 9.351 13.7 8.964C13.7 8.577 13.35 8.2611 12.92 8.2611ZM8.069 4.185H5.08V4.194C4.649 4.194 4.3 4.509 4.3 4.896C4.3 5.283 4.649 5.598 5.08 5.598H8.069C8.5 5.598 8.85 5.283 8.85 4.8861C8.85 4.5 8.5 4.185 8.069 4.185Z" fill="#D2D2D2"/>
</svg>
