<svg width="192" height="198" viewBox="0 0 192 198" fill="none" xmlns="http://www.w3.org/2000/svg">
<path d="M54.1519 132.34C52.272 129.954 52.6827 126.496 55.0693 124.617C57.4559 122.738 60.9146 123.149 62.7945 125.535C64.6744 127.921 64.2637 131.378 61.8771 133.257C59.4905 135.137 56.0318 134.726 54.1519 132.34Z" fill="#8E4DD5"/>
<path d="M88.4144 138.197C87.5599 137.113 87.7473 135.541 88.833 134.686C89.9187 133.831 91.4916 134.017 92.3461 135.102C93.2006 136.186 93.0132 137.758 91.9274 138.613C90.8417 139.468 89.2689 139.282 88.4144 138.197Z" fill="#8E4DD5"/>
<path d="M38.5234 56.0789L48.9818 61.8448L52.1389 73.3595L57.9059 62.905L69.4241 59.7498L58.9662 53.9835L55.8086 42.4693L50.0416 52.9237L38.5234 56.0789Z" fill="#00A98F"/>
<path d="M46.3682 91.5657L51.122 94.1866L52.557 99.4205L55.1784 94.6685L60.4139 93.2343L55.6604 90.6133L54.2251 85.3795L51.6037 90.1315L46.3682 91.5657Z" fill="#00A98F"/>
<path d="M86.2334 113.916C85.6019 112.344 86.3606 110.564 87.928 109.939C89.4955 109.314 91.2781 110.081 91.9096 111.653C92.5411 113.224 91.7824 115.004 90.215 115.629C88.6475 116.254 86.8649 115.487 86.2334 113.916Z" fill="white"/>
<path d="M124.265 162.84C123.956 162.071 124.329 161.199 125.099 160.893C125.868 160.586 126.743 160.96 127.052 161.729C127.361 162.498 126.987 163.369 126.218 163.676C125.448 163.983 124.574 163.609 124.265 162.84Z" fill="#00A98F"/>
<path d="M65.2885 22.8013L77.4945 25.372L84.1722 35.9316L86.7279 23.7019L97.26 17.0184L85.0544 14.4472L78.3763 3.88809L75.8206 16.1178L65.2885 22.8013Z" fill="#3897FF"/>
<path d="M78.0981 108.455L84.7078 112.219L86.6147 119.566L90.3835 112.976L97.7495 111.08L91.1398 107.317L89.2329 99.9687L85.4641 106.558L78.0981 108.455Z" fill="#FFCC00"/>
<path d="M108.626 153.198L110.696 156.388L109.855 160.089L113.043 158.028L116.75 158.878L114.679 155.688L115.52 151.987L112.333 154.048L108.626 153.198Z" fill="#FFCC00"/>
<path d="M127.373 171.188L129.148 173.922L128.427 177.095L131.159 175.328L134.336 176.057L132.561 173.323L133.282 170.15L130.55 171.916L127.373 171.188Z" fill="#8E4DD5"/>
<path d="M71.8766 82.3616L74.1274 89.2149L82.5105 77.0251L79.7872 70.2112L71.8766 82.3616Z" fill="#00A98F"/>
<path d="M89.4356 158.442L93.8867 154.615L82.5437 151.821L78.2523 156.003L89.4356 158.442Z" fill="#3897FF"/>
<path d="M118.767 175.654L121.669 173.409L114.103 171.566L111.311 174.028L118.767 175.654Z" fill="#FFCC00"/>
</svg>
