<svg width="117" height="81" viewBox="0 0 117 81" fill="none" xmlns="http://www.w3.org/2000/svg">
<rect width="3" height="3" rx="0.5" transform="matrix(0.834786 -0.550575 -0.551782 -0.833988 113.673 67.561)" fill="url(#paint0_radial_1011_5523)" fill-opacity="0.5"/>
<rect width="3" height="3" rx="0.5" transform="matrix(0.834786 -0.550575 -0.551782 -0.833988 113.673 67.561)" fill="url(#paint1_radial_1011_5523)"/>
<rect width="3" height="3" rx="0.5" transform="matrix(0.834786 -0.550575 -0.551782 -0.833988 110.354 60.8721)" fill="url(#paint2_radial_1011_5523)" fill-opacity="0.5"/>
<rect width="3" height="3" rx="0.5" transform="matrix(0.834786 -0.550575 -0.551782 -0.833988 110.354 60.8721)" fill="url(#paint3_radial_1011_5523)"/>
<rect width="3" height="3" rx="0.5" transform="matrix(0.834786 -0.550575 -0.551782 -0.833988 106.622 54.4041)" fill="url(#paint4_radial_1011_5523)" fill-opacity="0.5"/>
<rect width="3" height="3" rx="0.5" transform="matrix(0.834786 -0.550575 -0.551782 -0.833988 106.622 54.4041)" fill="url(#paint5_radial_1011_5523)"/>
<rect width="3" height="3" rx="0.5" transform="matrix(0.834786 -0.550575 -0.551782 -0.833988 102.404 48.2417)" fill="url(#paint6_radial_1011_5523)" fill-opacity="0.5"/>
<rect width="3" height="3" rx="0.5" transform="matrix(0.834786 -0.550575 -0.551782 -0.833988 102.404 48.2417)" fill="url(#paint7_radial_1011_5523)"/>
<rect width="3" height="3" rx="0.5" transform="matrix(0.834786 -0.550575 -0.551782 -0.833988 97.5742 42.5474)" fill="url(#paint8_radial_1011_5523)" fill-opacity="0.5"/>
<rect width="3" height="3" rx="0.5" transform="matrix(0.834786 -0.550575 -0.551782 -0.833988 97.5742 42.5474)" fill="url(#paint9_radial_1011_5523)"/>
<rect width="3" height="3" rx="0.5" transform="matrix(0.834786 -0.550575 -0.551782 -0.833988 91.9473 37.6382)" fill="url(#paint10_radial_1011_5523)" fill-opacity="0.5"/>
<rect width="3" height="3" rx="0.5" transform="matrix(0.834786 -0.550575 -0.551782 -0.833988 91.9473 37.6382)" fill="url(#paint11_radial_1011_5523)"/>
<rect width="3" height="3" rx="0.5" transform="matrix(0.834786 -0.550575 -0.551782 -0.833988 85.3408 34.1577)" fill="url(#paint12_radial_1011_5523)" fill-opacity="0.5"/>
<rect width="3" height="3" rx="0.5" transform="matrix(0.834786 -0.550575 -0.551782 -0.833988 85.3408 34.1577)" fill="url(#paint13_radial_1011_5523)"/>
<rect width="3" height="3" rx="0.5" transform="matrix(0.834786 -0.550575 -0.551782 -0.833988 78.1211 33.1311)" fill="url(#paint14_radial_1011_5523)" fill-opacity="0.5"/>
<rect width="3" height="3" rx="0.5" transform="matrix(0.834786 -0.550575 -0.551782 -0.833988 78.1211 33.1311)" fill="url(#paint15_radial_1011_5523)"/>
<rect width="3" height="3" rx="0.5" transform="matrix(0.834786 -0.550575 -0.551782 -0.833988 70.9429 35.1885)" fill="url(#paint16_radial_1011_5523)" fill-opacity="0.5"/>
<rect width="3" height="3" rx="0.5" transform="matrix(0.834786 -0.550575 -0.551782 -0.833988 70.9429 35.1885)" fill="url(#paint17_radial_1011_5523)"/>
<rect width="3" height="3" rx="0.5" transform="matrix(0.834786 -0.550575 -0.551782 -0.833988 64.7461 39.3562)" fill="url(#paint18_radial_1011_5523)" fill-opacity="0.5"/>
<rect width="3" height="3" rx="0.5" transform="matrix(0.834786 -0.550575 -0.551782 -0.833988 64.7461 39.3562)" fill="url(#paint19_radial_1011_5523)"/>
<rect width="3" height="3" rx="0.5" transform="matrix(0.834786 -0.550575 -0.551782 -0.833988 58.9697 44.0879)" fill="url(#paint20_radial_1011_5523)" fill-opacity="0.5"/>
<rect width="3" height="3" rx="0.5" transform="matrix(0.834786 -0.550575 -0.551782 -0.833988 58.9697 44.0879)" fill="url(#paint21_radial_1011_5523)"/>
<rect width="3" height="3" rx="0.5" transform="matrix(0.834786 -0.550575 -0.551782 -0.833988 52.7354 48.198)" fill="url(#paint22_radial_1011_5523)" fill-opacity="0.5"/>
<rect width="3" height="3" rx="0.5" transform="matrix(0.834786 -0.550575 -0.551782 -0.833988 52.7354 48.198)" fill="url(#paint23_radial_1011_5523)"/>
<rect width="3" height="3" rx="0.5" transform="matrix(0.834786 -0.550575 -0.551782 -0.833988 45.5464 50.2185)" fill="url(#paint24_radial_1011_5523)" fill-opacity="0.5"/>
<rect width="3" height="3" rx="0.5" transform="matrix(0.834786 -0.550575 -0.551782 -0.833988 45.5464 50.2185)" fill="url(#paint25_radial_1011_5523)"/>
<rect width="3" height="3" rx="0.5" transform="matrix(0.834786 -0.550575 -0.551782 -0.833988 36.3721 48.6997)" fill="url(#paint26_radial_1011_5523)" fill-opacity="0.5"/>
<rect width="3" height="3" rx="0.5" transform="matrix(0.834786 -0.550575 -0.551782 -0.833988 36.3721 48.6997)" fill="url(#paint27_radial_1011_5523)"/>
<rect width="3" height="3" rx="0.5" transform="matrix(0.834786 -0.550575 -0.551782 -0.833988 29.6855 45.3755)" fill="url(#paint28_radial_1011_5523)" fill-opacity="0.5"/>
<rect width="3" height="3" rx="0.5" transform="matrix(0.834786 -0.550575 -0.551782 -0.833988 29.6855 45.3755)" fill="url(#paint29_radial_1011_5523)"/>
<rect width="3" height="3" rx="0.5" transform="matrix(0.834786 -0.550575 -0.551782 -0.833988 23.6079 41.0369)" fill="url(#paint30_radial_1011_5523)" fill-opacity="0.5"/>
<rect width="3" height="3" rx="0.5" transform="matrix(0.834786 -0.550575 -0.551782 -0.833988 23.6079 41.0369)" fill="url(#paint31_radial_1011_5523)"/>
<rect width="3" height="3" rx="0.5" transform="matrix(0.834786 -0.550575 -0.551782 -0.833988 18.0278 36.0745)" fill="url(#paint32_radial_1011_5523)" fill-opacity="0.5"/>
<rect width="3" height="3" rx="0.5" transform="matrix(0.834786 -0.550575 -0.551782 -0.833988 18.0278 36.0745)" fill="url(#paint33_radial_1011_5523)"/>
<rect width="3" height="3" rx="0.5" transform="matrix(0.834786 -0.550575 -0.551782 -0.833988 12.8564 30.6887)" fill="url(#paint34_radial_1011_5523)" fill-opacity="0.5"/>
<rect width="3" height="3" rx="0.5" transform="matrix(0.834786 -0.550575 -0.551782 -0.833988 12.8564 30.6887)" fill="url(#paint35_radial_1011_5523)"/>
<rect width="3" height="3" rx="0.5" transform="matrix(0.834786 -0.550575 -0.551782 -0.833988 7.41846 24.1843)" fill="url(#paint36_radial_1011_5523)" fill-opacity="0.5"/>
<rect width="3" height="3" rx="0.5" transform="matrix(0.834786 -0.550575 -0.551782 -0.833988 7.41846 24.1843)" fill="url(#paint37_radial_1011_5523)"/>
<rect width="3" height="3" rx="0.5" transform="matrix(0.834786 -0.550575 -0.551782 -0.833988 1.81689 17.0254)" fill="url(#paint38_radial_1011_5523)" fill-opacity="0.5"/>
<rect width="3" height="3" rx="0.5" transform="matrix(0.834786 -0.550575 -0.551782 -0.833988 1.81689 17.0254)" fill="url(#paint39_radial_1011_5523)"/>
<defs>
<radialGradient id="paint0_radial_1011_5523" cx="0" cy="0" r="1" gradientUnits="userSpaceOnUse" gradientTransform="translate(1.5 1.5) rotate(85.3036) scale(2.87506)">
<stop stop-color="#868686"/>
<stop offset="1" stop-color="#D1D1D1"/>
</radialGradient>
<radialGradient id="paint1_radial_1011_5523" cx="0" cy="0" r="1" gradientUnits="userSpaceOnUse" gradientTransform="translate(1.5 1.5) rotate(85.3036) scale(2.87506)">
<stop stop-color="#868686"/>
<stop offset="1" stop-color="#D1D1D1"/>
</radialGradient>
<radialGradient id="paint2_radial_1011_5523" cx="0" cy="0" r="1" gradientUnits="userSpaceOnUse" gradientTransform="translate(1.5 1.5) rotate(85.3036) scale(2.87506)">
<stop stop-color="#868686"/>
<stop offset="1" stop-color="#D1D1D1"/>
</radialGradient>
<radialGradient id="paint3_radial_1011_5523" cx="0" cy="0" r="1" gradientUnits="userSpaceOnUse" gradientTransform="translate(1.5 1.5) rotate(85.3036) scale(2.87506)">
<stop stop-color="#868686"/>
<stop offset="1" stop-color="#D1D1D1"/>
</radialGradient>
<radialGradient id="paint4_radial_1011_5523" cx="0" cy="0" r="1" gradientUnits="userSpaceOnUse" gradientTransform="translate(1.5 1.5) rotate(85.3036) scale(2.87506)">
<stop stop-color="#868686"/>
<stop offset="1" stop-color="#D1D1D1"/>
</radialGradient>
<radialGradient id="paint5_radial_1011_5523" cx="0" cy="0" r="1" gradientUnits="userSpaceOnUse" gradientTransform="translate(1.5 1.5) rotate(85.3036) scale(2.87506)">
<stop stop-color="#868686"/>
<stop offset="1" stop-color="#D1D1D1"/>
</radialGradient>
<radialGradient id="paint6_radial_1011_5523" cx="0" cy="0" r="1" gradientUnits="userSpaceOnUse" gradientTransform="translate(1.5 1.5) rotate(85.3036) scale(2.87506)">
<stop stop-color="#868686"/>
<stop offset="1" stop-color="#D1D1D1"/>
</radialGradient>
<radialGradient id="paint7_radial_1011_5523" cx="0" cy="0" r="1" gradientUnits="userSpaceOnUse" gradientTransform="translate(1.5 1.5) rotate(85.3036) scale(2.87506)">
<stop stop-color="#868686"/>
<stop offset="1" stop-color="#D1D1D1"/>
</radialGradient>
<radialGradient id="paint8_radial_1011_5523" cx="0" cy="0" r="1" gradientUnits="userSpaceOnUse" gradientTransform="translate(1.5 1.5) rotate(85.3036) scale(2.87506)">
<stop stop-color="#868686"/>
<stop offset="1" stop-color="#D1D1D1"/>
</radialGradient>
<radialGradient id="paint9_radial_1011_5523" cx="0" cy="0" r="1" gradientUnits="userSpaceOnUse" gradientTransform="translate(1.5 1.5) rotate(85.3036) scale(2.87506)">
<stop stop-color="#868686"/>
<stop offset="1" stop-color="#D1D1D1"/>
</radialGradient>
<radialGradient id="paint10_radial_1011_5523" cx="0" cy="0" r="1" gradientUnits="userSpaceOnUse" gradientTransform="translate(1.5 1.5) rotate(85.3036) scale(2.87506)">
<stop stop-color="#868686"/>
<stop offset="1" stop-color="#D1D1D1"/>
</radialGradient>
<radialGradient id="paint11_radial_1011_5523" cx="0" cy="0" r="1" gradientUnits="userSpaceOnUse" gradientTransform="translate(1.5 1.5) rotate(85.3036) scale(2.87506)">
<stop stop-color="#868686"/>
<stop offset="1" stop-color="#D1D1D1"/>
</radialGradient>
<radialGradient id="paint12_radial_1011_5523" cx="0" cy="0" r="1" gradientUnits="userSpaceOnUse" gradientTransform="translate(1.5 1.5) rotate(85.3036) scale(2.87506)">
<stop stop-color="#868686"/>
<stop offset="1" stop-color="#D1D1D1"/>
</radialGradient>
<radialGradient id="paint13_radial_1011_5523" cx="0" cy="0" r="1" gradientUnits="userSpaceOnUse" gradientTransform="translate(1.5 1.5) rotate(85.3036) scale(2.87506)">
<stop stop-color="#868686"/>
<stop offset="1" stop-color="#D1D1D1"/>
</radialGradient>
<radialGradient id="paint14_radial_1011_5523" cx="0" cy="0" r="1" gradientUnits="userSpaceOnUse" gradientTransform="translate(1.5 1.5) rotate(85.3036) scale(2.87506)">
<stop stop-color="#868686"/>
<stop offset="1" stop-color="#D1D1D1"/>
</radialGradient>
<radialGradient id="paint15_radial_1011_5523" cx="0" cy="0" r="1" gradientUnits="userSpaceOnUse" gradientTransform="translate(1.5 1.5) rotate(85.3036) scale(2.87506)">
<stop stop-color="#868686"/>
<stop offset="1" stop-color="#D1D1D1"/>
</radialGradient>
<radialGradient id="paint16_radial_1011_5523" cx="0" cy="0" r="1" gradientUnits="userSpaceOnUse" gradientTransform="translate(1.5 1.5) rotate(85.3036) scale(2.87506)">
<stop stop-color="#868686"/>
<stop offset="1" stop-color="#D1D1D1"/>
</radialGradient>
<radialGradient id="paint17_radial_1011_5523" cx="0" cy="0" r="1" gradientUnits="userSpaceOnUse" gradientTransform="translate(1.5 1.5) rotate(85.3036) scale(2.87506)">
<stop stop-color="#868686"/>
<stop offset="1" stop-color="#D1D1D1"/>
</radialGradient>
<radialGradient id="paint18_radial_1011_5523" cx="0" cy="0" r="1" gradientUnits="userSpaceOnUse" gradientTransform="translate(1.5 1.5) rotate(85.3036) scale(2.87506)">
<stop stop-color="#868686"/>
<stop offset="1" stop-color="#D1D1D1"/>
</radialGradient>
<radialGradient id="paint19_radial_1011_5523" cx="0" cy="0" r="1" gradientUnits="userSpaceOnUse" gradientTransform="translate(1.5 1.5) rotate(85.3036) scale(2.87506)">
<stop stop-color="#868686"/>
<stop offset="1" stop-color="#D1D1D1"/>
</radialGradient>
<radialGradient id="paint20_radial_1011_5523" cx="0" cy="0" r="1" gradientUnits="userSpaceOnUse" gradientTransform="translate(1.5 1.5) rotate(85.3036) scale(2.87506)">
<stop stop-color="#868686"/>
<stop offset="1" stop-color="#D1D1D1"/>
</radialGradient>
<radialGradient id="paint21_radial_1011_5523" cx="0" cy="0" r="1" gradientUnits="userSpaceOnUse" gradientTransform="translate(1.5 1.5) rotate(85.3036) scale(2.87506)">
<stop stop-color="#868686"/>
<stop offset="1" stop-color="#D1D1D1"/>
</radialGradient>
<radialGradient id="paint22_radial_1011_5523" cx="0" cy="0" r="1" gradientUnits="userSpaceOnUse" gradientTransform="translate(1.5 1.5) rotate(85.3036) scale(2.87506)">
<stop stop-color="#868686"/>
<stop offset="1" stop-color="#D1D1D1"/>
</radialGradient>
<radialGradient id="paint23_radial_1011_5523" cx="0" cy="0" r="1" gradientUnits="userSpaceOnUse" gradientTransform="translate(1.5 1.5) rotate(85.3036) scale(2.87506)">
<stop stop-color="#868686"/>
<stop offset="1" stop-color="#D1D1D1"/>
</radialGradient>
<radialGradient id="paint24_radial_1011_5523" cx="0" cy="0" r="1" gradientUnits="userSpaceOnUse" gradientTransform="translate(1.5 1.5) rotate(85.3036) scale(2.87506)">
<stop stop-color="#868686"/>
<stop offset="1" stop-color="#D1D1D1"/>
</radialGradient>
<radialGradient id="paint25_radial_1011_5523" cx="0" cy="0" r="1" gradientUnits="userSpaceOnUse" gradientTransform="translate(1.5 1.5) rotate(85.3036) scale(2.87506)">
<stop stop-color="#868686"/>
<stop offset="1" stop-color="#D1D1D1"/>
</radialGradient>
<radialGradient id="paint26_radial_1011_5523" cx="0" cy="0" r="1" gradientUnits="userSpaceOnUse" gradientTransform="translate(1.5 1.5) rotate(85.3036) scale(2.87506)">
<stop stop-color="#868686"/>
<stop offset="1" stop-color="#D1D1D1"/>
</radialGradient>
<radialGradient id="paint27_radial_1011_5523" cx="0" cy="0" r="1" gradientUnits="userSpaceOnUse" gradientTransform="translate(1.5 1.5) rotate(85.3036) scale(2.87506)">
<stop stop-color="#868686"/>
<stop offset="1" stop-color="#D1D1D1"/>
</radialGradient>
<radialGradient id="paint28_radial_1011_5523" cx="0" cy="0" r="1" gradientUnits="userSpaceOnUse" gradientTransform="translate(1.5 1.5) rotate(85.3036) scale(2.87506)">
<stop stop-color="#868686"/>
<stop offset="1" stop-color="#D1D1D1"/>
</radialGradient>
<radialGradient id="paint29_radial_1011_5523" cx="0" cy="0" r="1" gradientUnits="userSpaceOnUse" gradientTransform="translate(1.5 1.5) rotate(85.3036) scale(2.87506)">
<stop stop-color="#868686"/>
<stop offset="1" stop-color="#D1D1D1"/>
</radialGradient>
<radialGradient id="paint30_radial_1011_5523" cx="0" cy="0" r="1" gradientUnits="userSpaceOnUse" gradientTransform="translate(1.5 1.5) rotate(85.3036) scale(2.87506)">
<stop stop-color="#868686"/>
<stop offset="1" stop-color="#D1D1D1"/>
</radialGradient>
<radialGradient id="paint31_radial_1011_5523" cx="0" cy="0" r="1" gradientUnits="userSpaceOnUse" gradientTransform="translate(1.5 1.5) rotate(85.3036) scale(2.87506)">
<stop stop-color="#868686"/>
<stop offset="1" stop-color="#D1D1D1"/>
</radialGradient>
<radialGradient id="paint32_radial_1011_5523" cx="0" cy="0" r="1" gradientUnits="userSpaceOnUse" gradientTransform="translate(1.5 1.5) rotate(85.3036) scale(2.87506)">
<stop stop-color="#868686"/>
<stop offset="1" stop-color="#D1D1D1"/>
</radialGradient>
<radialGradient id="paint33_radial_1011_5523" cx="0" cy="0" r="1" gradientUnits="userSpaceOnUse" gradientTransform="translate(1.5 1.5) rotate(85.3036) scale(2.87506)">
<stop stop-color="#868686"/>
<stop offset="1" stop-color="#D1D1D1"/>
</radialGradient>
<radialGradient id="paint34_radial_1011_5523" cx="0" cy="0" r="1" gradientUnits="userSpaceOnUse" gradientTransform="translate(1.5 1.5) rotate(85.3036) scale(2.87506)">
<stop stop-color="#868686"/>
<stop offset="1" stop-color="#D1D1D1"/>
</radialGradient>
<radialGradient id="paint35_radial_1011_5523" cx="0" cy="0" r="1" gradientUnits="userSpaceOnUse" gradientTransform="translate(1.5 1.5) rotate(85.3036) scale(2.87506)">
<stop stop-color="#868686"/>
<stop offset="1" stop-color="#D1D1D1"/>
</radialGradient>
<radialGradient id="paint36_radial_1011_5523" cx="0" cy="0" r="1" gradientUnits="userSpaceOnUse" gradientTransform="translate(1.5 1.5) rotate(85.3036) scale(2.87506)">
<stop stop-color="#868686"/>
<stop offset="1" stop-color="#D1D1D1"/>
</radialGradient>
<radialGradient id="paint37_radial_1011_5523" cx="0" cy="0" r="1" gradientUnits="userSpaceOnUse" gradientTransform="translate(1.5 1.5) rotate(85.3036) scale(2.87506)">
<stop stop-color="#868686"/>
<stop offset="1" stop-color="#D1D1D1"/>
</radialGradient>
<radialGradient id="paint38_radial_1011_5523" cx="0" cy="0" r="1" gradientUnits="userSpaceOnUse" gradientTransform="translate(1.5 1.5) rotate(85.3036) scale(2.87506)">
<stop stop-color="#868686"/>
<stop offset="1" stop-color="#D1D1D1"/>
</radialGradient>
<radialGradient id="paint39_radial_1011_5523" cx="0" cy="0" r="1" gradientUnits="userSpaceOnUse" gradientTransform="translate(1.5 1.5) rotate(85.3036) scale(2.87506)">
<stop stop-color="#868686"/>
<stop offset="1" stop-color="#D1D1D1"/>
</radialGradient>
</defs>
</svg>
