<svg width="73" height="67" viewBox="0 0 73 67" fill="none" xmlns="http://www.w3.org/2000/svg">
<path d="M25.251 53.5839C23.2252 52.3947 20.6189 53.0728 19.4296 55.0986C18.2404 57.1244 18.9185 59.7307 20.9443 60.9199C22.9701 62.1092 25.5764 61.431 26.7656 59.4052C27.9549 57.3795 27.2768 54.7732 25.251 53.5839Z" fill="#3897FF"/>
<path d="M29.2175 15.0005L29.6363 22.3762L35.2158 27.2183L27.8401 27.637L22.998 33.2166L22.5789 25.841L16.9998 20.9988L24.3755 20.5801L29.2175 15.0005Z" fill="#FFCC00"/>
<path d="M56.9328 23.9557L61.3465 29.8797L68.6704 30.8464L62.746 35.26L61.7798 42.584L57.3661 36.6599L50.0422 35.6933L55.966 31.2798L56.9328 23.9557Z" fill="#00A98F"/>
</svg>
