<svg width="64" height="64" viewBox="0 0 64 64" fill="none" xmlns="http://www.w3.org/2000/svg">
<path d="M46.7812 34.488C46.0612 34.1653 45.2239 34.2907 44.632 34.8187L33.5417 44.6933C33.0404 45.1387 32.7951 45.8053 32.8911 46.472L34.6777 58.944C34.7844 59.6933 35.3523 60.272 36.0696 60.512L36.6616 60.6053C37.2136 60.6053 37.7709 60.376 38.1629 59.9813C44.48 53.6613 47.9598 45.2587 47.9598 36.3147C47.9625 35.5253 47.5012 34.8107 46.7812 34.488Z" fill="#D61414"/>
<path d="M27.688 16.0374C18.7443 16.0374 10.3393 19.5174 4.02227 25.8347L3.92894 25.9254C3.39297 26.4614 3.20631 27.2534 3.4463 27.9707C3.68629 28.6907 4.31026 29.2107 5.05956 29.3174L17.5311 31.104L17.8137 31.1254C18.379 31.1254 18.9257 30.8854 19.307 30.456L29.1812 19.3654C29.7066 18.776 29.8346 17.936 29.5119 17.216C29.1893 16.4987 28.4746 16.0374 27.688 16.0374Z" fill="#D61414"/>
<path d="M31.6751 51.0692C31.1632 51.0692 30.6512 50.8719 30.2619 50.4826L13.5186 33.7386C12.7693 32.9892 12.7346 31.7839 13.4412 30.9919L25.99 16.9359C34.8777 6.53323 49.3064 -0.261438 62.0392 0.0105625C63.1059 0.0345625 63.9672 0.895896 63.9912 1.96256C64.2845 14.6239 57.4714 29.1226 47.0345 38.0399L33.0111 50.5599C32.6271 50.9012 32.1525 51.0692 31.6751 51.0692Z" fill="#DADADA"/>
<path d="M45.6873 24.9759C43.978 24.9759 42.2714 24.3252 40.9728 23.0266C38.3756 20.4266 38.3756 16.1972 40.9728 13.5972C43.5727 10.9972 47.8019 10.9972 50.4018 13.5972C52.999 16.1972 52.999 20.4266 50.4018 23.0266C49.1005 24.3279 47.3939 24.9759 45.6873 24.9759Z" fill="#D61414"/>
<path d="M2.00108 63.9999C1.47843 63.9999 0.966452 63.7946 0.587801 63.4133C0.067822 62.8933 -0.12417 62.1306 0.0864879 61.4239C0.755794 59.1813 4.24632 47.8533 6.97154 45.1306C10.1527 41.9519 15.6939 41.9519 18.8697 45.1306C20.459 46.7226 21.3336 48.8319 21.3336 51.0826C21.3336 53.3306 20.459 55.4426 18.8697 57.0319C16.1472 59.7546 4.81696 63.2453 2.57705 63.9173L2.00108 63.9999Z" fill="#5F5F5F"/>
<path d="M26.7653 16.0479C18.1684 16.2799 10.1234 19.7332 4.01961 25.8345L3.92894 25.9252C3.39297 26.4612 3.20631 27.2532 3.4463 27.9705C3.68629 28.6905 4.31026 29.2105 5.05956 29.3172L13.8139 30.5732L25.9894 16.9332C26.2427 16.6372 26.5014 16.3412 26.7653 16.0479Z" fill="#FF474D"/>
<path d="M61.2953 0C49.1144 0 35.5257 6.344 26.766 16.048C26.502 16.3413 26.2434 16.6347 25.9874 16.9333L13.8145 30.5733L13.4412 30.992C12.7346 31.784 12.7693 32.9893 13.5186 33.7387L21.8915 42.112L40.9734 23.0293C38.3762 20.4293 38.3762 16.2 40.9734 13.6C42.2721 12.3013 43.9813 11.6507 45.6879 11.6507C47.3945 11.6507 49.1038 12.3013 50.4024 13.6L63.4072 0.594667C63.0552 0.242667 62.5726 0.0213333 62.0392 0.008C61.7913 0.00266667 61.5433 0 61.2953 0V0Z" fill="white"/>
<path d="M45.6873 11.6506C43.9807 11.6506 42.2714 12.3013 40.9728 13.6C38.3756 16.2 38.3756 20.4293 40.9728 23.0293L50.3991 13.6C49.1005 12.2986 47.3939 11.6506 45.6873 11.6506Z" fill="#FF474D"/>
<path d="M12.9209 42.7466C10.7396 42.7466 8.56103 43.5412 6.9691 45.1306C4.24654 47.8532 0.756019 59.1839 0.0840465 61.4239C-0.126612 62.1279 0.0653806 62.8933 0.585359 63.4133L18.8673 45.1306C17.2807 43.5412 15.1021 42.7466 12.9209 42.7466Z" fill="#8A8A8A"/>
</svg>
