<svg width="104" height="130" viewBox="0 0 104 130" fill="none" xmlns="http://www.w3.org/2000/svg">
<rect width="3" height="3" rx="1" transform="matrix(0.895337 0.445389 -0.446684 0.894692 100.863 0)" fill="url(#paint0_radial_1296_18626)" fill-opacity="0.8"/>
<rect width="3" height="3" rx="1" transform="matrix(0.895337 0.445389 -0.446684 0.894692 98.0273 6.34033)" fill="url(#paint1_radial_1296_18626)" fill-opacity="0.8"/>
<rect width="3" height="3" rx="1" transform="matrix(0.895337 0.445389 -0.446684 0.894692 94.9668 12.8574)" fill="url(#paint2_radial_1296_18626)" fill-opacity="0.8"/>
<rect width="3" height="3" rx="1" transform="matrix(0.895337 0.445389 -0.446684 0.894692 91.8066 19.3262)" fill="url(#paint3_radial_1296_18626)" fill-opacity="0.8"/>
<rect width="3" height="3" rx="1" transform="matrix(0.895337 0.445389 -0.446684 0.894692 88.5469 25.7456)" fill="url(#paint4_radial_1296_18626)" fill-opacity="0.8"/>
<rect width="3" height="3" rx="1" transform="matrix(0.895337 0.445389 -0.446684 0.894692 85.1875 32.1133)" fill="url(#paint5_radial_1296_18626)" fill-opacity="0.8"/>
<rect width="3" height="3" rx="1" transform="matrix(0.895337 0.445389 -0.446684 0.894692 81.7207 38.4233)" fill="url(#paint6_radial_1296_18626)" fill-opacity="0.8"/>
<rect width="3" height="3" rx="1" transform="matrix(0.895337 0.445389 -0.446684 0.894692 78.1387 44.6689)" fill="url(#paint7_radial_1296_18626)" fill-opacity="0.8"/>
<rect width="3" height="3" rx="1" transform="matrix(0.895337 0.445389 -0.446684 0.894692 74.4297 50.8398)" fill="url(#paint8_radial_1296_18626)" fill-opacity="0.8"/>
<rect width="3" height="3" rx="1" transform="matrix(0.895337 0.445389 -0.446684 0.894692 70.5791 56.9233)" fill="url(#paint9_radial_1296_18626)" fill-opacity="0.8"/>
<rect width="3" height="3" rx="1" transform="matrix(0.895337 0.445389 -0.446684 0.894692 66.5674 62.9019)" fill="url(#paint10_radial_1296_18626)" fill-opacity="0.8"/>
<rect width="3" height="3" rx="1" transform="matrix(0.895337 0.445389 -0.446684 0.894692 62.3691 68.7505)" fill="url(#paint11_radial_1296_18626)" fill-opacity="0.8"/>
<rect width="3" height="3" rx="1" transform="matrix(0.895337 0.445389 -0.446684 0.894692 57.9502 74.4351)" fill="url(#paint12_radial_1296_18626)" fill-opacity="0.8"/>
<rect width="3" height="3" rx="1" transform="matrix(0.895337 0.445389 -0.446684 0.894692 53.2666 79.9028)" fill="url(#paint13_radial_1296_18626)" fill-opacity="0.8"/>
<rect width="3" height="3" rx="1" transform="matrix(0.895337 0.445389 -0.446684 0.894692 48.2539 85.0713)" fill="url(#paint14_radial_1296_18626)" fill-opacity="0.8"/>
<rect width="3" height="3" rx="1" transform="matrix(0.895337 0.445389 -0.446684 0.894692 42.8291 89.8047)" fill="url(#paint15_radial_1296_18626)" fill-opacity="0.8"/>
<rect width="3" height="3" rx="1" transform="matrix(0.895337 0.445389 -0.446684 0.894692 36.8779 93.856)" fill="url(#paint16_radial_1296_18626)" fill-opacity="0.8"/>
<rect width="3" height="3" rx="1" transform="matrix(0.895337 0.445389 -0.446684 0.894692 30.291 96.7627)" fill="url(#paint17_radial_1296_18626)" fill-opacity="0.8"/>
<rect width="3" height="3" rx="1" transform="matrix(0.895337 0.445389 -0.446684 0.894692 23.1553 97.7217)" fill="url(#paint18_radial_1296_18626)" fill-opacity="0.8"/>
<rect width="3" height="3" rx="1" transform="matrix(0.895337 0.445389 -0.446684 0.894692 16.168 95.9849)" fill="url(#paint19_radial_1296_18626)" fill-opacity="0.8"/>
<rect width="3" height="3" rx="1" transform="matrix(0.895337 0.445389 -0.446684 0.894692 10.2285 91.917)" fill="url(#paint20_radial_1296_18626)" fill-opacity="0.8"/>
<rect width="3" height="3" rx="1" transform="matrix(0.895337 0.445389 -0.446684 0.894692 5.5957 86.6025)" fill="url(#paint21_radial_1296_18626)" fill-opacity="0.8"/>
<rect width="3" height="3" rx="1" transform="matrix(0.895337 0.445389 -0.446684 0.894692 2.52344 80.0918)" fill="url(#paint22_radial_1296_18626)" fill-opacity="0.8"/>
<rect width="3" height="3" rx="1" transform="matrix(0.895337 0.445389 -0.446684 0.894692 1.33984 72.9897)" fill="url(#paint23_radial_1296_18626)" fill-opacity="0.8"/>
<rect width="3" height="3" rx="1" transform="matrix(0.895337 0.445389 -0.446684 0.894692 1.88184 65.8105)" fill="url(#paint24_radial_1296_18626)" fill-opacity="0.8"/>
<rect width="3" height="3" rx="1" transform="matrix(0.895337 0.445389 -0.446684 0.894692 3.9834 58.9243)" fill="url(#paint25_radial_1296_18626)" fill-opacity="0.8"/>
<rect width="3" height="3" rx="1" transform="matrix(0.895337 0.445389 -0.446684 0.894692 7.55078 52.6709)" fill="url(#paint26_radial_1296_18626)" fill-opacity="0.8"/>
<rect width="3" height="3" rx="1" transform="matrix(0.895337 0.445389 -0.446684 0.894692 12.5303 47.4712)" fill="url(#paint27_radial_1296_18626)" fill-opacity="0.8"/>
<rect width="3" height="3" rx="1" transform="matrix(0.895337 0.445389 -0.446684 0.894692 18.7617 43.8652)" fill="url(#paint28_radial_1296_18626)" fill-opacity="0.8"/>
<rect width="3" height="3" rx="1" transform="matrix(0.895337 0.445389 -0.446684 0.894692 23.1045 42.6001)" fill="url(#paint29_radial_1296_18626)" fill-opacity="0.8"/>
<rect width="3" height="3" rx="1" transform="matrix(0.895337 0.445389 -0.446684 0.894692 30.2832 42.0518)" fill="url(#paint30_radial_1296_18626)" fill-opacity="0.8"/>
<rect width="3" height="3" rx="1" transform="matrix(0.895337 0.445389 -0.446684 0.894692 37.334 43.5112)" fill="url(#paint31_radial_1296_18626)" fill-opacity="0.8"/>
<rect width="3" height="3" rx="1" transform="matrix(0.895337 0.445389 -0.446684 0.894692 43.7568 46.7637)" fill="url(#paint32_radial_1296_18626)" fill-opacity="0.8"/>
<rect width="3" height="3" rx="1" transform="matrix(0.895337 0.445389 -0.446684 0.894692 49.3623 51.2817)" fill="url(#paint33_radial_1296_18626)" fill-opacity="0.8"/>
<rect width="3" height="3" rx="1" transform="matrix(0.895337 0.445389 -0.446684 0.894692 54.209 56.6064)" fill="url(#paint34_radial_1296_18626)" fill-opacity="0.8"/>
<rect width="3" height="3" rx="1" transform="matrix(0.895337 0.445389 -0.446684 0.894692 58.4248 62.4424)" fill="url(#paint35_radial_1296_18626)" fill-opacity="0.8"/>
<rect width="3" height="3" rx="1" transform="matrix(0.895337 0.445389 -0.446684 0.894692 62.1309 68.6147)" fill="url(#paint36_radial_1296_18626)" fill-opacity="0.8"/>
<rect width="3" height="3" rx="1" transform="matrix(0.895337 0.445389 -0.446684 0.894692 65.4238 75.0176)" fill="url(#paint37_radial_1296_18626)" fill-opacity="0.8"/>
<rect width="3" height="3" rx="1" transform="matrix(0.895337 0.445389 -0.446684 0.894692 68.3701 81.5869)" fill="url(#paint38_radial_1296_18626)" fill-opacity="0.8"/>
<rect width="3" height="3" rx="1" transform="matrix(0.895337 0.445389 -0.446684 0.894692 71.0254 88.2788)" fill="url(#paint39_radial_1296_18626)" fill-opacity="0.8"/>
<rect width="3" height="3" rx="1" transform="matrix(0.895337 0.445389 -0.446684 0.894692 73.4268 95.0664)" fill="url(#paint40_radial_1296_18626)" fill-opacity="0.8"/>
<rect width="3" height="3" rx="1" transform="matrix(0.895337 0.445389 -0.446684 0.894692 75.6035 101.929)" fill="url(#paint41_radial_1296_18626)" fill-opacity="0.8"/>
<rect width="3" height="3" rx="1" transform="matrix(0.895337 0.445389 -0.446684 0.894692 77.5879 108.908)" fill="url(#paint42_radial_1296_18626)" fill-opacity="0.8"/>
<rect width="3" height="3" rx="1" transform="matrix(0.895337 0.445389 -0.446684 0.894692 79.8633 117)" fill="url(#paint43_radial_1296_18626)" fill-opacity="0.8"/>
<rect width="3" height="3" rx="1" transform="matrix(0.895337 0.445389 -0.446684 0.894692 82.3398 125)" fill="url(#paint44_radial_1296_18626)" fill-opacity="0.8"/>
<defs>
<radialGradient id="paint0_radial_1296_18626" cx="0" cy="0" r="1" gradientUnits="userSpaceOnUse" gradientTransform="translate(1.5 1.5) rotate(85.3036) scale(2.87506)">
<stop stop-color="white"/>
<stop offset="1" stop-color="#FAFAFA"/>
</radialGradient>
<radialGradient id="paint1_radial_1296_18626" cx="0" cy="0" r="1" gradientUnits="userSpaceOnUse" gradientTransform="translate(1.5 1.5) rotate(85.3036) scale(2.87506)">
<stop stop-color="white"/>
<stop offset="1" stop-color="#FAFAFA"/>
</radialGradient>
<radialGradient id="paint2_radial_1296_18626" cx="0" cy="0" r="1" gradientUnits="userSpaceOnUse" gradientTransform="translate(1.5 1.5) rotate(85.3036) scale(2.87506)">
<stop stop-color="white"/>
<stop offset="1" stop-color="#FAFAFA"/>
</radialGradient>
<radialGradient id="paint3_radial_1296_18626" cx="0" cy="0" r="1" gradientUnits="userSpaceOnUse" gradientTransform="translate(1.5 1.5) rotate(85.3036) scale(2.87506)">
<stop stop-color="white"/>
<stop offset="1" stop-color="#FAFAFA"/>
</radialGradient>
<radialGradient id="paint4_radial_1296_18626" cx="0" cy="0" r="1" gradientUnits="userSpaceOnUse" gradientTransform="translate(1.5 1.5) rotate(85.3036) scale(2.87506)">
<stop stop-color="white"/>
<stop offset="1" stop-color="#FAFAFA"/>
</radialGradient>
<radialGradient id="paint5_radial_1296_18626" cx="0" cy="0" r="1" gradientUnits="userSpaceOnUse" gradientTransform="translate(1.5 1.5) rotate(85.3036) scale(2.87506)">
<stop stop-color="white"/>
<stop offset="1" stop-color="#FAFAFA"/>
</radialGradient>
<radialGradient id="paint6_radial_1296_18626" cx="0" cy="0" r="1" gradientUnits="userSpaceOnUse" gradientTransform="translate(1.5 1.5) rotate(85.3036) scale(2.87506)">
<stop stop-color="white"/>
<stop offset="1" stop-color="#FAFAFA"/>
</radialGradient>
<radialGradient id="paint7_radial_1296_18626" cx="0" cy="0" r="1" gradientUnits="userSpaceOnUse" gradientTransform="translate(1.5 1.5) rotate(85.3036) scale(2.87506)">
<stop stop-color="white"/>
<stop offset="1" stop-color="#FAFAFA"/>
</radialGradient>
<radialGradient id="paint8_radial_1296_18626" cx="0" cy="0" r="1" gradientUnits="userSpaceOnUse" gradientTransform="translate(1.5 1.5) rotate(85.3036) scale(2.87506)">
<stop stop-color="white"/>
<stop offset="1" stop-color="#FAFAFA"/>
</radialGradient>
<radialGradient id="paint9_radial_1296_18626" cx="0" cy="0" r="1" gradientUnits="userSpaceOnUse" gradientTransform="translate(1.5 1.5) rotate(85.3036) scale(2.87506)">
<stop stop-color="white"/>
<stop offset="1" stop-color="#FAFAFA"/>
</radialGradient>
<radialGradient id="paint10_radial_1296_18626" cx="0" cy="0" r="1" gradientUnits="userSpaceOnUse" gradientTransform="translate(1.5 1.5) rotate(85.3036) scale(2.87506)">
<stop stop-color="white"/>
<stop offset="1" stop-color="#FAFAFA"/>
</radialGradient>
<radialGradient id="paint11_radial_1296_18626" cx="0" cy="0" r="1" gradientUnits="userSpaceOnUse" gradientTransform="translate(1.5 1.5) rotate(85.3036) scale(2.87506)">
<stop stop-color="white"/>
<stop offset="1" stop-color="#FAFAFA"/>
</radialGradient>
<radialGradient id="paint12_radial_1296_18626" cx="0" cy="0" r="1" gradientUnits="userSpaceOnUse" gradientTransform="translate(1.5 1.5) rotate(85.3036) scale(2.87506)">
<stop stop-color="white"/>
<stop offset="1" stop-color="#FAFAFA"/>
</radialGradient>
<radialGradient id="paint13_radial_1296_18626" cx="0" cy="0" r="1" gradientUnits="userSpaceOnUse" gradientTransform="translate(1.5 1.5) rotate(85.3036) scale(2.87506)">
<stop stop-color="white"/>
<stop offset="1" stop-color="#FAFAFA"/>
</radialGradient>
<radialGradient id="paint14_radial_1296_18626" cx="0" cy="0" r="1" gradientUnits="userSpaceOnUse" gradientTransform="translate(1.5 1.5) rotate(85.3036) scale(2.87506)">
<stop stop-color="white"/>
<stop offset="1" stop-color="#FAFAFA"/>
</radialGradient>
<radialGradient id="paint15_radial_1296_18626" cx="0" cy="0" r="1" gradientUnits="userSpaceOnUse" gradientTransform="translate(1.5 1.5) rotate(85.3036) scale(2.87506)">
<stop stop-color="white"/>
<stop offset="1" stop-color="#FAFAFA"/>
</radialGradient>
<radialGradient id="paint16_radial_1296_18626" cx="0" cy="0" r="1" gradientUnits="userSpaceOnUse" gradientTransform="translate(1.5 1.5) rotate(85.3036) scale(2.87506)">
<stop stop-color="white"/>
<stop offset="1" stop-color="#FAFAFA"/>
</radialGradient>
<radialGradient id="paint17_radial_1296_18626" cx="0" cy="0" r="1" gradientUnits="userSpaceOnUse" gradientTransform="translate(1.5 1.5) rotate(85.3036) scale(2.87506)">
<stop stop-color="white"/>
<stop offset="1" stop-color="#FAFAFA"/>
</radialGradient>
<radialGradient id="paint18_radial_1296_18626" cx="0" cy="0" r="1" gradientUnits="userSpaceOnUse" gradientTransform="translate(1.5 1.5) rotate(85.3036) scale(2.87506)">
<stop stop-color="white"/>
<stop offset="1" stop-color="#FAFAFA"/>
</radialGradient>
<radialGradient id="paint19_radial_1296_18626" cx="0" cy="0" r="1" gradientUnits="userSpaceOnUse" gradientTransform="translate(1.5 1.5) rotate(85.3036) scale(2.87506)">
<stop stop-color="white"/>
<stop offset="1" stop-color="#FAFAFA"/>
</radialGradient>
<radialGradient id="paint20_radial_1296_18626" cx="0" cy="0" r="1" gradientUnits="userSpaceOnUse" gradientTransform="translate(1.5 1.5) rotate(85.3036) scale(2.87506)">
<stop stop-color="white"/>
<stop offset="1" stop-color="#FAFAFA"/>
</radialGradient>
<radialGradient id="paint21_radial_1296_18626" cx="0" cy="0" r="1" gradientUnits="userSpaceOnUse" gradientTransform="translate(1.5 1.5) rotate(85.3036) scale(2.87506)">
<stop stop-color="white"/>
<stop offset="1" stop-color="#FAFAFA"/>
</radialGradient>
<radialGradient id="paint22_radial_1296_18626" cx="0" cy="0" r="1" gradientUnits="userSpaceOnUse" gradientTransform="translate(1.5 1.5) rotate(85.3036) scale(2.87506)">
<stop stop-color="white"/>
<stop offset="1" stop-color="#FAFAFA"/>
</radialGradient>
<radialGradient id="paint23_radial_1296_18626" cx="0" cy="0" r="1" gradientUnits="userSpaceOnUse" gradientTransform="translate(1.5 1.5) rotate(85.3036) scale(2.87506)">
<stop stop-color="white"/>
<stop offset="1" stop-color="#FAFAFA"/>
</radialGradient>
<radialGradient id="paint24_radial_1296_18626" cx="0" cy="0" r="1" gradientUnits="userSpaceOnUse" gradientTransform="translate(1.5 1.5) rotate(85.3036) scale(2.87506)">
<stop stop-color="white"/>
<stop offset="1" stop-color="#FAFAFA"/>
</radialGradient>
<radialGradient id="paint25_radial_1296_18626" cx="0" cy="0" r="1" gradientUnits="userSpaceOnUse" gradientTransform="translate(1.5 1.5) rotate(85.3036) scale(2.87506)">
<stop stop-color="white"/>
<stop offset="1" stop-color="#FAFAFA"/>
</radialGradient>
<radialGradient id="paint26_radial_1296_18626" cx="0" cy="0" r="1" gradientUnits="userSpaceOnUse" gradientTransform="translate(1.5 1.5) rotate(85.3036) scale(2.87506)">
<stop stop-color="white"/>
<stop offset="1" stop-color="#FAFAFA"/>
</radialGradient>
<radialGradient id="paint27_radial_1296_18626" cx="0" cy="0" r="1" gradientUnits="userSpaceOnUse" gradientTransform="translate(1.5 1.5) rotate(85.3036) scale(2.87506)">
<stop stop-color="white"/>
<stop offset="1" stop-color="#FAFAFA"/>
</radialGradient>
<radialGradient id="paint28_radial_1296_18626" cx="0" cy="0" r="1" gradientUnits="userSpaceOnUse" gradientTransform="translate(1.5 1.5) rotate(85.3036) scale(2.87506)">
<stop stop-color="white"/>
<stop offset="1" stop-color="#FAFAFA"/>
</radialGradient>
<radialGradient id="paint29_radial_1296_18626" cx="0" cy="0" r="1" gradientUnits="userSpaceOnUse" gradientTransform="translate(1.5 1.5) rotate(85.3036) scale(2.87506)">
<stop stop-color="white"/>
<stop offset="1" stop-color="#FAFAFA"/>
</radialGradient>
<radialGradient id="paint30_radial_1296_18626" cx="0" cy="0" r="1" gradientUnits="userSpaceOnUse" gradientTransform="translate(1.5 1.5) rotate(85.3036) scale(2.87506)">
<stop stop-color="white"/>
<stop offset="1" stop-color="#FAFAFA"/>
</radialGradient>
<radialGradient id="paint31_radial_1296_18626" cx="0" cy="0" r="1" gradientUnits="userSpaceOnUse" gradientTransform="translate(1.5 1.5) rotate(85.3036) scale(2.87506)">
<stop stop-color="white"/>
<stop offset="1" stop-color="#FAFAFA"/>
</radialGradient>
<radialGradient id="paint32_radial_1296_18626" cx="0" cy="0" r="1" gradientUnits="userSpaceOnUse" gradientTransform="translate(1.5 1.5) rotate(85.3036) scale(2.87506)">
<stop stop-color="white"/>
<stop offset="1" stop-color="#FAFAFA"/>
</radialGradient>
<radialGradient id="paint33_radial_1296_18626" cx="0" cy="0" r="1" gradientUnits="userSpaceOnUse" gradientTransform="translate(1.5 1.5) rotate(85.3036) scale(2.87506)">
<stop stop-color="white"/>
<stop offset="1" stop-color="#FAFAFA"/>
</radialGradient>
<radialGradient id="paint34_radial_1296_18626" cx="0" cy="0" r="1" gradientUnits="userSpaceOnUse" gradientTransform="translate(1.5 1.5) rotate(85.3036) scale(2.87506)">
<stop stop-color="white"/>
<stop offset="1" stop-color="#FAFAFA"/>
</radialGradient>
<radialGradient id="paint35_radial_1296_18626" cx="0" cy="0" r="1" gradientUnits="userSpaceOnUse" gradientTransform="translate(1.5 1.5) rotate(85.3036) scale(2.87506)">
<stop stop-color="white"/>
<stop offset="1" stop-color="#FAFAFA"/>
</radialGradient>
<radialGradient id="paint36_radial_1296_18626" cx="0" cy="0" r="1" gradientUnits="userSpaceOnUse" gradientTransform="translate(1.5 1.5) rotate(85.3036) scale(2.87506)">
<stop stop-color="white"/>
<stop offset="1" stop-color="#FAFAFA"/>
</radialGradient>
<radialGradient id="paint37_radial_1296_18626" cx="0" cy="0" r="1" gradientUnits="userSpaceOnUse" gradientTransform="translate(1.5 1.5) rotate(85.3036) scale(2.87506)">
<stop stop-color="white"/>
<stop offset="1" stop-color="#FAFAFA"/>
</radialGradient>
<radialGradient id="paint38_radial_1296_18626" cx="0" cy="0" r="1" gradientUnits="userSpaceOnUse" gradientTransform="translate(1.5 1.5) rotate(85.3036) scale(2.87506)">
<stop stop-color="white"/>
<stop offset="1" stop-color="#FAFAFA"/>
</radialGradient>
<radialGradient id="paint39_radial_1296_18626" cx="0" cy="0" r="1" gradientUnits="userSpaceOnUse" gradientTransform="translate(1.5 1.5) rotate(85.3036) scale(2.87506)">
<stop stop-color="white"/>
<stop offset="1" stop-color="#FAFAFA"/>
</radialGradient>
<radialGradient id="paint40_radial_1296_18626" cx="0" cy="0" r="1" gradientUnits="userSpaceOnUse" gradientTransform="translate(1.5 1.5) rotate(85.3036) scale(2.87506)">
<stop stop-color="white"/>
<stop offset="1" stop-color="#FAFAFA"/>
</radialGradient>
<radialGradient id="paint41_radial_1296_18626" cx="0" cy="0" r="1" gradientUnits="userSpaceOnUse" gradientTransform="translate(1.5 1.5) rotate(85.3036) scale(2.87506)">
<stop stop-color="white"/>
<stop offset="1" stop-color="#FAFAFA"/>
</radialGradient>
<radialGradient id="paint42_radial_1296_18626" cx="0" cy="0" r="1" gradientUnits="userSpaceOnUse" gradientTransform="translate(1.5 1.5) rotate(85.3036) scale(2.87506)">
<stop stop-color="white"/>
<stop offset="1" stop-color="#FAFAFA"/>
</radialGradient>
<radialGradient id="paint43_radial_1296_18626" cx="0" cy="0" r="1" gradientUnits="userSpaceOnUse" gradientTransform="translate(1.5 1.5) rotate(85.3036) scale(2.87506)">
<stop stop-color="white"/>
<stop offset="1" stop-color="#FAFAFA"/>
</radialGradient>
<radialGradient id="paint44_radial_1296_18626" cx="0" cy="0" r="1" gradientUnits="userSpaceOnUse" gradientTransform="translate(1.5 1.5) rotate(85.3036) scale(2.87506)">
<stop stop-color="white"/>
<stop offset="1" stop-color="#FAFAFA"/>
</radialGradient>
</defs>
</svg>
