<svg width="204" height="40" viewBox="0 0 204 40" fill="none" xmlns="http://www.w3.org/2000/svg">
<path d="M66.9976 27.5631H71.2627V14.8924H77.574V10.9155H60.9438V14.8924H66.9976V27.5631Z" fill="#C4C4C4"/>
<path d="M78.9702 27.5631H93.4694V23.6415H83.2724V21.2277H92.3345V17.5911H83.2724V14.8924H93.3536V10.9155H78.9702V27.5631Z" fill="#C4C4C4"/>
<path d="M111.669 23.7535C112.038 22.9756 112.003 21.5746 112.003 21.5746H107.179C106.762 22.3607 105.68 24.3138 103.85 24.3138C101.626 24.3138 99.8838 22.1849 99.8838 19.2393C99.8838 16.2937 101.626 14.3418 103.85 14.3418C105.68 14.3418 106.762 16.0485 107.179 16.8346H112.003C112.003 16.8346 111.763 15.6146 111.444 14.8924C110.06 11.7523 107.926 10.4531 103.85 10.4531C98.43 10.4531 94.7473 13.5514 94.7473 19.2393C94.7473 24.9272 98.43 28.0255 103.85 28.0255C107.926 28.0255 110.659 25.8824 111.669 23.7535Z" fill="#C4C4C4"/>
<path d="M114.363 27.5631H119.436V20.5042H123.976V27.5631H129.066V10.9155H123.976V16.8346H119.436V10.9155H114.363V27.5631Z" fill="#C4C4C4"/>
<path d="M151.245 27.5631H155.806L156.689 24.3138H162.271L163.102 27.5631H167.801L161.547 10.9155H157.475L151.245 27.5631ZM158.053 20.7884L159.466 16.5341L160.879 20.7884H158.053Z" fill="#909599"/>
<path d="M167.556 24.0897C168.558 26.7772 170.312 28.0255 174.782 28.0255C179.669 28.0255 181.198 25.7365 181.198 22.5919C181.198 19.2393 178.24 17.8348 174.164 17.2568C173.131 17.0404 171.954 16.5341 172.341 15.2666C172.553 14.5702 173.438 14.0056 174.372 14.0056C175.882 14.0056 176.89 15.4705 177.284 15.9792L180.596 15.9389C180.596 15.9389 180.409 13.7091 179.362 12.6611C177.877 11.1753 176.874 10.7553 174.372 10.6443C170.846 10.4878 167.616 12.4647 167.616 15.7248C167.616 18.1988 168.82 20.2566 173.962 21.2509C176.116 21.6671 176.78 22.2682 176.556 23.1933C176.363 23.9886 175.963 24.3138 174.782 24.3138C172.952 24.3138 171.98 22.6382 171.702 22.2682H167.128C167.128 22.2682 167.321 23.462 167.556 24.0897Z" fill="#909599"/>
<path d="M182.388 27.5631H187.443L187.219 10.9155H182.388V27.5631Z" fill="#909599"/>
<path d="M187.443 27.5631H192.005L192.888 24.3138H198.47L199.301 27.5631H204L197.746 10.9155H193.674L187.443 27.5631ZM194.251 20.7884L195.664 16.5341L197.077 20.7884H194.251Z" fill="#909599"/>
<path d="M130.999 27.6283V10.9807H132.574V27.6283H130.999Z" fill="#909599"/>
<path d="M138.464 13.1079H138.418V27.6283H136.843V10.9807H138.626L148.261 25.5242H148.308V10.9807H149.883V27.6283H148.053L138.464 13.1079Z" fill="#909599"/>
<path d="M39.0477 15.1261L42.9761 17.2549L39.6089 11.4286L22.4363 40L16.1509 28.9076V20.2801L0.998535 7.17087H25.0178L31.5277 10.7563L28.7217 15.3501L23.6709 12.7731H16.7121L22.0996 17.591V28.9076L39.6089 0L58.2407 32.493L36.0173 19.8319L39.0477 15.1261Z" fill="#C4C4C4"/>
</svg>
