<svg width="79" height="86" viewBox="0 0 79 86" fill="none" xmlns="http://www.w3.org/2000/svg">
<path d="M56.5532 57.8539C58.5285 58.807 60.9025 57.9782 61.8555 56.0029C62.8086 54.0275 61.9798 51.6535 60.0044 50.7005C58.0291 49.7474 55.6551 50.5762 54.7021 52.5516C53.749 54.5269 54.5778 56.9009 56.5532 57.8539Z" fill="#8E4DD5"/>
<path d="M63.8609 31.0847L59.3044 25.9064L52.4154 25.5627L57.5938 21.0062L57.9375 14.1172L62.4942 19.2952L69.383 19.6392L64.2047 24.1957L63.8609 31.0847Z" fill="#FFCC00"/>
<path d="M11.8678 66.7354L7.31115 61.5573L0.422279 61.2133L5.60068 56.6567L5.94434 49.7678L10.501 54.9459L17.3898 55.2899L12.2119 59.8464L11.8678 66.7354Z" fill="#00A98F"/>
</svg>
