<svg width="80" height="80" viewBox="0 0 80 80" fill="none" xmlns="http://www.w3.org/2000/svg">
<path d="M28.8177 59.4501C26.5732 58.7571 24.1918 60.0148 23.4988 62.2593C22.8058 64.5038 24.0635 66.8851 26.308 67.5782C28.5525 68.2712 30.9339 67.0135 31.6269 64.769C32.3199 62.5245 31.0622 60.1431 28.8177 59.4501Z" fill="#3897FF"/>
<path d="M70.3356 26.4858L72.4345 33.5689L78.9757 37.0025L71.8925 39.1014L68.459 45.6426L66.3597 38.5597L59.8189 35.1259L66.902 33.0269L70.3356 26.4858Z" fill="#FFCC00"/>
<path d="M24.2596 19.8634L29.9141 24.6174L37.2645 23.8788L32.5101 29.5334L33.249 36.8838L27.5945 32.1297L20.2441 32.8683L24.998 27.214L24.2596 19.8634Z" fill="#8E4DD5"/>
</svg>
